<svg xmlns="http://www.w3.org/2000/svg" width="192.88" height="73.87" viewBox="0 0 192.88 73.87" class="logo-svg" data-v-605db7d8="" style="padding: 20px; left: 0px; max-width: 237px; top: 625px;"><path d="M157.91 61.31c-13.77 0-22-10.36-22-24.33s8.24-24.42 22-24.42 22 10.45 22 24.42-8.25 24.33-22 24.33M157.61 0C136 0 122.33 16.28 122.33 37S136 73.87 157.61 73.87 192.88 57.69 192.88 37 179.21 0 157.61 0" fill="#736457"></path><path d="M128.28.93h-16.37L96.15 24.61 80.29.93H63.51l24.71 35.52-25.54 36.57h16.27l16.89-25.13 16.99 25.13h16.79l-25.74-36.98zM0 .93v12.56h23.38v59.53h13.28V13.49h23.69V.93z" fill="#736457"></path></svg>